# xmcd
#
# Track frame offsets:
# 150
# 55469
# 84000
# 102466
# 138011
# 171416
#
# Disc length: 2612 seconds
#
# Revision: 0
# Processed by: cddbd v1.4PL0 Copyright (c) Steve Scherf et al.
# Submitted via: Audion 3.0.2 (http://www.panic.com/audion/)
#
DISCID=470a3206
DTITLE=yume bitsu - live at kilby court summer 2002
DYEAR=1900
DGENRE=
TTITLE0=song one
TTITLE1=song two
TTITLE2=song three
TTITLE3=song four
TTITLE4=song five
TTITLE5=song six
EXTD=
EXTT0=
EXTT1=
EXTT2=
EXTT3=
EXTT4=
EXTT5=
PLAYORDER=
